<?xml version="1.0" encoding="utf-8"?>
<!-- Generator: Adobe Illustrator 26.0.1, SVG Export Plug-In . SVG Version: 6.00 Build 0)  -->
<svg version="1.1" id="Layer_1" xmlns="http://www.w3.org/2000/svg" xmlns:xlink="http://www.w3.org/1999/xlink" x="0px" y="0px"
	 viewBox="0 0 280.32 55.48" style="enable-background:new 0 0 280.32 55.48;" xml:space="preserve">
<style type="text/css">
	.st0{fill:#FBFBFC;}
	.st1{fill:#E7355C;}
	.st2{clip-path:url(#SVGID_00000029029570049443598040000006904159036544106413_);}
	.st3{fill:none;}
	.st4{fill:#181E36;}
	.st5{fill:#F8C276;}
</style>
<g>
	<g>
		<g>
			<g>
				<g>
					<path class="st0" d="M66.25,5.93v0.7h-0.27c-1.91,0-2.27,0.56-2.27,2.25v10.66c0,1.64,0.58,2.18,2.1,2.18h0.43v0.7H58.9v-0.7
						h0.24c1.72,0,2.32-0.43,2.32-1.96V8.59c0-1.33-0.53-1.96-2.08-1.96H58.9v-0.7H66.25z M75.85,5.93v0.7
						c-0.82,0.02-1.81,0.41-2.95,1.26c-1.76,1.31-4.3,3.63-6.62,5.29c1.23,0.94,2.68,2.2,4.45,3.75c2.08,1.84,3.43,3.07,4.62,3.92
						c0.82,0.58,1.55,0.82,2.35,0.87v0.7h-3.89c-2.13-1.57-5.83-5.27-9.86-8.41c1.4-1.02,3.07-2.15,4.45-3.26
						c1.18-0.97,2.37-1.91,2.37-2.83c0-0.8-0.56-1.18-1.69-1.28v-0.7H75.85z"/>
				</g>
				<g>
					<path class="st0" d="M88.55,5.93v0.7h-0.41c-1.64,0-2.2,0.63-2.2,1.91v11.17c0,1.43,0.56,2.01,2.15,2.01h0.46v0.7h-7.49v-0.7
						h0.31c1.67,0,2.32-0.46,2.32-1.93V8.52c0-1.47-0.63-1.89-2.37-1.89h-0.27v-0.7H88.55z"/>
				</g>
				<g>
					<path class="st0" d="M95.52,5.93l12.62,12.98V9.48c0-1.74-0.89-2.85-2.92-2.85v-0.7h6.45v0.7c-1.89,0.1-2.61,1.04-2.61,3.63
						v9.52c0,0.22,0.05,0.75,0.19,1.55c0.14,0.8,0.17,1.23,0.17,1.31h-1.28c-0.36-0.58-1.04-1.47-1.89-2.35L96.13,9.75v9.33
						c0,1.57,0.94,2.54,2.97,2.63v0.7h-6.77v-0.7h0.29c1.64,0,2.59-1.16,2.59-2.63V8.88c-0.48-0.51-1.09-1.14-1.59-1.6
						c-0.44-0.39-0.99-0.63-1.67-0.65v-0.7H95.52z"/>
				</g>
				<g>
					<path class="st0" d="M130.84,10.4h-0.7c-0.99-2.54-3.07-3.94-5.85-3.94c-4.08,0-6.99,3.07-6.99,7.49
						c0,4.62,2.92,7.93,7.11,7.93c1.62,0,3.31-0.46,4.35-1.16v-3.87c0-1.67-0.7-2.03-2.49-2.03h-0.46v-0.7h7.61v0.7h-0.24
						c-1.64,0-2.18,0.65-2.18,1.98v4.64c-2.32,0.82-4.5,1.26-6.43,1.26c-5.41,0-9.89-2.76-9.89-8.29c0-5.03,3.94-8.78,9.96-8.78
						c2.03,0,3.75,0.36,5.9,1.16L130.84,10.4z"/>
				</g>
				<g>
					<path class="st0" d="M134.77,11.49c1.5-0.56,2.37-1.43,2.37-2.56c0-0.7-0.31-0.97-0.63-0.97c-0.12,0-0.39,0.05-0.65,0.05
						c-0.73,0-1.16-0.56-1.16-1.11c0-0.75,0.53-1.26,1.38-1.26c1.31,0,2.27,1.21,2.27,2.56c0,1.67-1.31,3.19-3.36,3.89L134.77,11.49
						z"/>
				</g>
				<g>
					<path class="st0" d="M152.02,10.28h-0.82c-0.36-2.42-1.91-3.82-4.3-3.82c-2.08,0-3.38,0.92-3.38,2.39
						c0,1.26,1.04,2.08,3.09,3.17c1.35,0.7,2.47,1.28,3.34,1.86c1.84,1.23,2.66,2.49,2.66,4.11c0,2.39-1.79,4.71-5.92,4.71
						c-1.67,0-3.75-0.46-5.39-1.18l-0.07-4.21h0.82c0.29,2.92,1.93,4.45,4.69,4.45c2.22,0,3.84-1.11,3.84-2.76
						c0-1.4-0.89-2.27-2.56-3.26c-1.21-0.73-2.37-1.31-3.38-1.93c-1.74-1.06-3.02-2.13-3.02-4.04c0-2.42,2.03-4.13,5.32-4.13
						c2.18,0,3.77,0.65,5.1,1.35V10.28z"/>
				</g>
				<g>
					<path class="st0" d="M176.53,10.28h-0.82c-0.36-2.42-1.91-3.82-4.3-3.82c-2.08,0-3.38,0.92-3.38,2.39
						c0,1.26,1.04,2.08,3.09,3.17c1.35,0.7,2.47,1.28,3.34,1.86c1.84,1.23,2.66,2.49,2.66,4.11c0,2.39-1.79,4.71-5.92,4.71
						c-1.67,0-3.75-0.46-5.39-1.18l-0.07-4.21h0.82c0.29,2.92,1.93,4.45,4.69,4.45c2.22,0,3.84-1.11,3.84-2.76
						c0-1.4-0.89-2.27-2.56-3.26c-1.21-0.73-2.37-1.31-3.38-1.93c-1.74-1.06-3.02-2.13-3.02-4.04c0-2.42,2.03-4.13,5.32-4.13
						c2.18,0,3.77,0.65,5.1,1.35V10.28z"/>
				</g>
				<g>
					<path class="st0" d="M197.07,10.4h-0.8c-1.4-2.71-3.14-3.94-5.68-3.94c-4.3,0-6.55,3.36-6.55,7.57c0,2.2,0.56,3.82,1.57,5.22
						c1.16,1.62,2.76,2.63,5.17,2.63c2.97,0,4.79-1.38,5.66-4.21h0.75l-0.07,3.53c-1.69,0.94-4.45,1.5-6.62,1.5
						c-5.29,0-9.07-3.46-9.07-8.39c0-5.51,4.76-8.68,9.36-8.68c1.91,0,4.08,0.41,5.66,1.11L197.07,10.4z"/>
				</g>
				<g>
					<path class="st0" d="M208.3,5.93v0.7h-0.41c-1.72,0-2.1,0.8-2.1,1.98v4.93h9.26V8.59c0-1.31-0.46-1.96-2.32-1.96h-0.19v-0.7
						h7.23v0.7c-1.84,0-2.47,0.34-2.47,1.98v11.07c0,1.52,0.6,2.03,2.03,2.03h0.43v0.7h-7.23v-0.7h0.22c1.64,0,2.3-0.46,2.3-1.98
						v-5.27h-9.26v5.03c0,1.74,0.51,2.22,2.27,2.22h0.24v0.7h-7.23v-0.7c1.91,0,2.47-0.41,2.47-2.08V8.61
						c0-1.43-0.51-1.98-2.22-1.98h-0.24v-0.7H208.3z"/>
				</g>
				<g>
					<path class="st0" d="M231.41,22.71c-4.71,0-8.34-3.41-8.34-8.48c0-4.88,3.55-8.58,8.46-8.58c5.27,0,8.34,4.16,8.34,8.56
						C239.87,18.16,237.21,22.71,231.41,22.71z M237.33,15.21c0-5.15-2.56-8.75-6.24-8.75c-2.47,0-5.49,1.91-5.49,6.74
						c0,4.62,2.37,8.68,6.12,8.68C234.97,21.88,237.33,19.42,237.33,15.21z"/>
				</g>
				<g>
					<path class="st0" d="M252.65,22.71c-4.71,0-8.34-3.41-8.34-8.48c0-4.88,3.55-8.58,8.46-8.58c5.27,0,8.34,4.16,8.34,8.56
						C261.11,18.16,258.46,22.71,252.65,22.71z M258.58,15.21c0-5.15-2.56-8.75-6.24-8.75c-2.47,0-5.49,1.91-5.49,6.74
						c0,4.62,2.37,8.68,6.12,8.68C256.21,21.88,258.58,19.42,258.58,15.21z"/>
				</g>
				<g>
					<path class="st0" d="M271.95,5.93v0.7h-0.56c-1.91,0-2.2,0.75-2.2,2.2v10.9c0,1.33,0.63,1.98,2.2,1.98h3.05
						c0.94,0,1.43-0.02,2.05-0.27c1.31-0.51,2.2-1.62,3.09-3.07h0.73l-1.14,4.04h-15.11v-0.7h0.36c1.84,0,2.51-0.34,2.51-2.05V8.56
						c0-1.43-0.63-1.93-2.49-1.93h-0.29v-0.7H271.95z"/>
				</g>
			</g>
			<g>
				<rect x="58.9" y="31.01" class="st1" width="221.41" height="0.48"/>
			</g>
			<g>
				<g>
					<path class="st0" d="M62.64,39.16c2.24,0,3.58,1.16,3.58,3.11c0,1.53-0.99,2.52-2.08,2.86l2.31,4.22h-1.51l-2.11-3.99H60.7
						v3.99h-1.36V39.16H62.64z M60.7,40.31v3.93h2.01c1.34,0,2.15-0.74,2.15-1.97c0-1.23-0.85-1.97-2.26-1.97H60.7z"/>
				</g>
				<g>
					<path class="st0" d="M75.82,38.99c2.92,0,5.22,2.28,5.22,5.27c0,2.99-2.26,5.26-5.22,5.26c-2.96,0-5.22-2.28-5.22-5.26
						C70.6,41.31,72.86,38.99,75.82,38.99z M75.82,48.26c2.21,0,3.84-1.7,3.84-4.01s-1.63-4.01-3.84-4.01
						c-2.21,0-3.85,1.7-3.85,4.01S73.61,48.26,75.82,48.26z"/>
				</g>
				<g>
					<path class="st0" d="M93.78,41.02c-0.67-0.34-1.73-0.76-3.03-0.76c-2.32,0-3.99,1.7-3.99,4.01s1.67,4.01,3.99,4.01
						c1.37,0,2.43-0.41,3.1-0.75v1.29c-0.34,0.2-1.49,0.72-3.1,0.72c-3.09,0-5.36-2.24-5.36-5.26c0-3.03,2.28-5.27,5.36-5.27
						c1.54,0,2.69,0.54,3.03,0.74V41.02z"/>
				</g>
				<g>
					<path class="st0" d="M105.13,49.35v-4.59h-5.05v4.59h-1.36V39.16h1.36v4.46h5.05v-4.46h1.36v10.19H105.13z"/>
				</g>
				<g>
					<path class="st0" d="M112.19,49.35V39.16h6.26v1.15h-4.9v3.31h4.13v1.15h-4.13v3.44h5.11v1.15H112.19z"/>
				</g>
				<g>
					<path class="st0" d="M123.01,48.93v-1.34c0.72,0.35,1.77,0.72,2.87,0.72c1.27,0,2.22-0.52,2.22-1.46
						c0-0.95-0.55-1.46-2.26-2.05c-1.95-0.68-2.87-1.51-2.87-3.07c0-1.73,1.44-2.73,3.4-2.73c1.02,0,1.97,0.27,2.53,0.52v1.29
						c-0.57-0.3-1.54-0.59-2.46-0.59c-1.26,0-2.14,0.57-2.14,1.47c0,0.84,0.5,1.43,2.24,2.04c1.95,0.71,2.9,1.5,2.9,3.03
						c0,1.74-1.34,2.77-3.48,2.77C124.78,49.52,123.69,49.23,123.01,48.93z"/>
				</g>
				<g>
					<path class="st0" d="M137.7,40.31v9.04h-1.36v-9.04h-3.1v-1.15h7.57v1.15H137.7z"/>
				</g>
				<g>
					<path class="st0" d="M145.32,49.35V39.16h6.26v1.15h-4.9v3.31h4.13v1.15h-4.13v3.44h5.11v1.15H145.32z"/>
				</g>
				<g>
					<path class="st0" d="M159.79,39.16c2.24,0,3.58,1.16,3.58,3.11c0,1.53-0.99,2.52-2.08,2.86l2.31,4.22h-1.51l-2.11-3.99h-2.12
						v3.99h-1.36V39.16H159.79z M157.85,40.31v3.93h2.01c1.34,0,2.15-0.74,2.15-1.97c0-1.23-0.85-1.97-2.26-1.97H157.85z"/>
				</g>
			</g>
		</g>
		<g>
			<g>
				<defs>
					<path id="SVGID_1_" d="M41.91,31.14c0,12.51-20.15,22.34-20.15,22.34S1.61,43.65,1.61,31.14c0-10.54,0.12-26.56,0.12-26.56
						l6.92-1.35c8.66-1.69,17.57-1.69,26.24,0l6.92,1.35C41.81,4.58,41.91,20.6,41.91,31.14z"/>
				</defs>
				<use xlink:href="#SVGID_1_"  style="overflow:visible;fill:#FBFBFC;"/>
				<clipPath id="SVGID_00000034784216558664240320000004082305378756909973_">
					<use xlink:href="#SVGID_1_"  style="overflow:visible;"/>
				</clipPath>
				<g style="clip-path:url(#SVGID_00000034784216558664240320000004082305378756909973_);">
					<g>
						<path class="st1" d="M51,49.4c-9.34-9.71-16.6-17.18-23.69-24.32C34.4,17.94,41.66,10.47,51,0.75
							c-1.6-1.7-3.23-3.32-4.92-4.92c-9.71,9.34-17.18,16.6-24.32,23.69C14.62,12.43,7.15,5.17-2.56-4.17
							c-1.69,1.6-3.32,3.23-4.92,4.92c9.34,9.71,16.6,17.18,23.69,24.32C9.12,32.21,1.86,39.68-7.48,49.4
							c1.6,1.7,3.23,3.32,4.92,4.92c9.71-9.34,17.18-16.6,24.32-23.69c7.14,7.09,14.61,14.35,24.32,23.69
							C47.78,52.72,49.41,51.09,51,49.4z"/>
					</g>
					<g>
						<path class="st3" d="M51,49.4c-9.34-9.71-16.6-17.18-23.69-24.32C34.4,17.94,41.66,10.47,51,0.75
							c-1.6-1.7-3.23-3.32-4.92-4.92c-9.71,9.34-17.18,16.6-24.32,23.69C14.62,12.43,7.15,5.17-2.56-4.17
							c-1.69,1.6-3.32,3.23-4.92,4.92c9.34,9.71,16.6,17.18,23.69,24.32C9.12,32.21,1.86,39.68-7.48,49.4
							c1.6,1.7,3.23,3.32,4.92,4.92c9.71-9.34,17.18-16.6,24.32-23.69c7.14,7.09,14.61,14.35,24.32,23.69
							C47.78,52.72,49.41,51.09,51,49.4z"/>
					</g>
				</g>
			</g>
			<g>
				<path class="st0" d="M21.77,55.48l-0.16-0.08C20.73,54.97,0,44.71,0,31.35C0,20.28,0.12,3.32,0.12,3.15l0-0.3l7.64-1.49
					c9.29-1.81,18.71-1.81,28,0l7.64,1.49l0,0.3c0,0.17,0.11,17.13,0.11,28.2c0,13.36-20.71,23.62-21.6,24.05L21.77,55.48z
					 M0.84,3.45c-0.02,2.31-0.12,17.64-0.12,27.9c0,12.31,19.09,22.33,21.04,23.32c1.95-0.99,21.03-11.01,21.03-23.32
					c0-10.26-0.1-25.59-0.11-27.9l-7.06-1.38c-9.2-1.79-18.52-1.79-27.72,0L0.84,3.45z"/>
			</g>
			<g>
				<path class="st0" d="M21.77,53.69l-0.08-0.04c-0.2-0.1-20.26-10.02-20.26-22.51c0-10.42,0.12-26.4,0.12-26.56l0-0.15l7.07-1.38
					c8.72-1.7,17.58-1.7,26.3,0l7.07,1.38l0,0.15c0,0.16,0.11,16.14,0.11,26.56c0,12.48-20.05,22.41-20.25,22.51L21.77,53.69z
					 M1.9,4.73C1.89,6.38,1.79,21.25,1.79,31.14c0,11.86,18.6,21.45,19.98,22.14C23.15,52.59,41.73,43,41.73,31.14
					c0-9.89-0.09-24.77-0.11-26.41l-6.78-1.32c-8.68-1.7-17.49-1.7-26.17,0L1.9,4.73z"/>
			</g>
			<g>
				<path class="st4" d="M32.22,20.76c-0.97-1.61-2.36-2.32-3.73-2.82c-0.04-0.18-0.05-0.36-0.06-0.58l0-0.13
					c-0.04-0.96-0.11-2.76-2.18-2.76c0,0,0,0,0,0c-0.18,0-0.5,0.04-1.02,0.09c-0.81,0.09-1.4,0.14-1.63,0.13l-3.22,0
					c-0.22,0.02-0.79-0.04-1.63-0.13c-0.51-0.06-0.84-0.09-1.01-0.09c-0.02,0-0.04,0-0.05,0c-2.02,0-2.09,1.79-2.13,2.76l0,0.13
					c-0.01,0.22-0.02,0.4-0.06,0.58c-1.37,0.5-2.76,1.2-3.73,2.82l-0.87,2.12c-0.2,0.73-0.26,1.52-0.22,1.82l0.13,0.85
					c-0.06,0.59,0.04,1.29,0.11,1.61c0.17,0.75,0.41,0.95,0.57,1.04l0.07,0.04c-0.02,0.66,0.38,1.51,0.53,1.76
					c0.22,0.37,0.45,0.58,0.7,0.63c0.03,0.29,0.16,0.61,0.39,0.95c0.24,0.34,0.97,1.17,1.64,1.19c0.14,0.53,0.65,1.07,1.19,1.42
					c0.29,0.19,0.79,0.47,1.25,0.47c0.07,0,0.14-0.01,0.21-0.03c0.24,0.47,0.9,0.82,1.57,0.97c0.25,0.06,0.46,0.08,0.64,0.08
					c0.3,0,0.51-0.06,0.66-0.15c0.45,0.42,1.3,0.48,1.66,0.48c0.36,0,1.2-0.06,1.65-0.48c0.15,0.09,0.36,0.15,0.66,0.15
					c0.18,0,0.39-0.02,0.64-0.08c0.67-0.15,1.34-0.49,1.58-0.96c0.07,0.02,0.14,0.02,0.21,0.02c0.45,0,0.95-0.27,1.25-0.47
					c0.54-0.35,1.05-0.9,1.19-1.42c0.6-0.02,1.31-0.72,1.64-1.19c0.24-0.34,0.37-0.66,0.39-0.95c0.19-0.05,0.44-0.2,0.7-0.63
					c0.15-0.25,0.55-1.08,0.53-1.74l0.1-0.06c0.09-0.05,0.36-0.21,0.54-1.03c0.07-0.32,0.18-1.03,0.11-1.61l0.13-0.85
					c0.05-0.3-0.02-1.1-0.22-1.84L32.22,20.76z"/>
			</g>
			<g>
				<g>
					<path class="st5" d="M19.56,17.78c-0.24,0.34-0.5,0.69-0.71,0.99c-0.44,0.62-0.83,1.16-1.01,1.39l-5.64,7.9
						c-0.15,0.21,0.06,1.06,0.4,1.62c0.18,0.3,0.3,0.36,0.32,0.35c0,0,0.02-0.01,0.04-0.05l4.23-7.92c0.13-0.24,0.56-1.02,1.07-1.93
						C18.65,19.42,19.15,18.52,19.56,17.78z"/>
				</g>
				<g>
					<path class="st5" d="M18.24,17.54c0.14-0.13,0.27-0.26,0.4-0.39c-0.47,0.34-0.99,0.72-1.45,1.07c-0.66,0.5-1.24,0.92-1.52,1.1
						l-3.74,2.73c-0.44,0.35-0.74,2.11-0.67,2.56l4.58-4.73C16.28,19.43,17.32,18.42,18.24,17.54z"/>
				</g>
				<g>
					<path class="st5" d="M23.27,34.5l-0.13-1.78c-0.27-3.84-0.85-12.05-1.17-14.9c-0.32,2.85-0.9,11.06-1.17,14.9l-0.13,1.78
						c-0.01,0.17-0.02,0.3-0.03,0.4c0,0.03,0,0.08,0.06,0.15c0.18,0.2,0.69,0.33,1.26,0.33c0.58,0,1.09-0.14,1.26-0.33
						c0.06-0.06,0.06-0.11,0.06-0.15C23.3,34.8,23.29,34.67,23.27,34.5z"/>
				</g>
				<g>
					<path class="st5" d="M25.62,32.29c-0.57-3.02-1.54-8.06-2.36-11.64l-0.05-0.21c-0.19-0.83-0.38-1.64-0.55-2.29
						c0.42,4.11,0.86,10.79,1.17,15.91c0,0.07,0.01,0.16,0.01,0.26c0.01,0.21,0.01,0.46,0.04,0.58c0.03,0.14,0.39,0.21,0.92,0.09
						c0.69-0.15,1.24-0.52,1.18-0.78l0,0C25.9,33.78,25.77,33.12,25.62,32.29z"/>
				</g>
				<g>
					<path class="st5" d="M20.72,18.01c-0.36,0.84-0.92,2.22-1.81,4.42l-0.11,0.27c-0.24,0.67-0.48,1.34-0.72,2
						c-1.22,3.38-2.1,5.91-2.7,7.72c-0.08,0.24,0.29,0.81,0.94,1.25c0.43,0.28,0.85,0.42,1.03,0.35c0.04-0.02,0.08-0.05,0.09-0.14
						c0.51-3,1.29-7.12,2.09-11.02c0.06-0.31,0.47-1.98,0.87-3.6C20.52,18.83,20.63,18.4,20.72,18.01z"/>
				</g>
				<g>
					<path class="st5" d="M20.71,20.65c-0.82,3.58-1.78,8.62-2.36,11.64c-0.16,0.83-0.29,1.5-0.37,1.92l0,0
						c-0.06,0.26,0.49,0.63,1.18,0.78c0.54,0.12,0.89,0.05,0.92-0.09c0.03-0.12,0.03-0.38,0.04-0.58c0-0.1,0.01-0.19,0.01-0.26
						c0.31-5.12,0.75-11.8,1.17-15.91c-0.17,0.65-0.36,1.46-0.55,2.29L20.71,20.65z"/>
				</g>
				<g>
					<path class="st5" d="M20.04,18.1c-0.67,1.18-1.55,2.78-2.05,3.7l-4.58,8.57c-0.09,0.18,0,0.49,0.25,0.85
						c0.38,0.54,0.96,0.96,1.18,0.93c0.02,0,0.03-0.01,0.04-0.04c0.92-2.77,2.11-6.19,3.28-9.38c0.08-0.22,0.48-1.21,0.95-2.35
						C19.41,19.65,19.75,18.81,20.04,18.1z"/>
				</g>
				<g>
					<path class="st5" d="M19.05,17.54c-0.06,0.06-0.12,0.12-0.18,0.18c-0.95,0.96-2.13,2.16-2.52,2.47l-4.83,4.99
						c-0.16,0.16-0.19,1.04-0.01,1.84c0.1,0.46,0.22,0.61,0.26,0.63c0,0,0.02-0.02,0.06-0.07l5.49-7.7c0.05-0.07,0.24-0.33,0.5-0.67
						C18.13,18.79,18.62,18.13,19.05,17.54z"/>
				</g>
				<g>
					<path class="st5" d="M18.32,16.76l0.55-0.38c0.21-0.15,0.42-0.29,0.64-0.44l0.3-0.22c0.2-0.14,0.4-0.28,0.6-0.42
						c-0.26,0.02-0.78-0.03-1.74-0.13c-0.41-0.04-0.8-0.09-0.96-0.09c-1.37-0.02-1.52,0.98-1.57,2.17l0,0.13
						C16.13,17.7,16.12,18,16,18.32c0,0,0,0,0,0v0.05c0.27-0.19,0.52-0.37,0.76-0.53C17.28,17.47,17.8,17.12,18.32,16.76z"/>
				</g>
				<g>
					<path class="st5" d="M26.12,20.15c-0.18-0.22-0.56-0.76-1.01-1.38c-0.21-0.3-0.46-0.65-0.71-0.99
						c0.41,0.74,0.91,1.64,1.31,2.35c0.51,0.91,0.94,1.69,1.07,1.93L31,29.98c0.02,0.05,0.04,0.05,0.04,0.05
						c0.01,0,0.14-0.05,0.32-0.35c0.34-0.57,0.55-1.42,0.4-1.62L26.12,20.15z"/>
				</g>
				<g>
					<path class="st5" d="M24.45,15.94c0.21,0.15,0.42,0.3,0.64,0.44l0.53,0.36c0.53,0.36,1.06,0.72,1.59,1.09
						c0.24,0.17,0.49,0.34,0.76,0.53v-0.04c-0.12-0.33-0.13-0.63-0.14-0.94l0-0.13c-0.05-1.2-0.2-2.18-1.57-2.17
						c-0.16,0-0.55,0.04-0.96,0.09c-0.96,0.1-1.47,0.15-1.74,0.13c0.2,0.14,0.4,0.28,0.6,0.42L24.45,15.94z"/>
				</g>
				<g>
					<path class="st5" d="M27.6,20.19c-0.38-0.3-1.56-1.5-2.51-2.46c-0.06-0.06-0.12-0.12-0.18-0.19c0.43,0.59,0.92,1.25,1.25,1.68
						c0.26,0.34,0.45,0.6,0.5,0.67l0,0l5.49,7.69c0.04,0.06,0.07,0.07,0.07,0.07c0.02-0.01,0.14-0.16,0.25-0.63
						c0.18-0.8,0.14-1.68-0.01-1.84L27.6,20.19z"/>
				</g>
				<g>
					<path class="st5" d="M28.28,19.31c-0.27-0.17-0.85-0.6-1.51-1.09c-0.46-0.35-0.98-0.73-1.45-1.07c0.13,0.13,0.27,0.26,0.4,0.39
						c0.92,0.89,1.96,1.9,2.39,2.34l0,0l4.58,4.73c0.07-0.45-0.23-2.2-0.67-2.56L28.28,19.31z"/>
				</g>
				<g>
					<path class="st5" d="M31.65,21.04c0.01,0.01,0.03,0.02,0.04,0.03c-0.87-1.44-2.08-2.1-3.62-2.63c0.19,0.14,0.39,0.28,0.6,0.42
						L31.65,21.04z"/>
				</g>
				<g>
					<path class="st5" d="M25.98,21.79c-0.5-0.92-1.38-2.51-2.05-3.7c0.29,0.72,0.63,1.56,0.92,2.28c0.46,1.15,0.87,2.13,0.95,2.35
						c1.17,3.19,2.36,6.61,3.28,9.38c0.01,0.04,0.02,0.04,0.04,0.04c0.21,0.03,0.8-0.39,1.18-0.93c0.25-0.36,0.35-0.68,0.25-0.85
						L25.98,21.79z"/>
				</g>
				<g>
					<path class="st5" d="M15.89,18.44c-1.54,0.53-2.75,1.19-3.62,2.63c0.01-0.01,0.03-0.02,0.04-0.03l2.98-2.18
						C15.5,18.72,15.7,18.58,15.89,18.44z"/>
				</g>
				<g>
					<path class="st5" d="M25.88,24.7c-0.24-0.66-0.48-1.33-0.72-2.01l-0.11-0.26c-0.88-2.2-1.45-3.57-1.81-4.42
						c0.09,0.39,0.2,0.81,0.3,1.24c0.4,1.62,0.81,3.29,0.87,3.6c0.8,3.9,1.59,8.02,2.09,11.02c0.02,0.1,0.06,0.13,0.09,0.14
						c0.18,0.08,0.6-0.06,1.03-0.35c0.65-0.43,1.02-1,0.94-1.24C27.98,30.61,27.09,28.08,25.88,24.7z"/>
				</g>
			</g>
		</g>
	</g>
	<g>
		<path class="st1" d="M176.22,46.51v-0.65c0.35,0.17,0.86,0.35,1.4,0.35c0.62,0,1.08-0.25,1.08-0.71c0-0.46-0.27-0.71-1.1-1
			c-0.95-0.33-1.4-0.74-1.4-1.49c0-0.84,0.7-1.33,1.65-1.33c0.5,0,0.96,0.13,1.23,0.25v0.63c-0.28-0.14-0.75-0.29-1.2-0.29
			c-0.61,0-1.04,0.28-1.04,0.72c0,0.41,0.24,0.69,1.09,0.99c0.95,0.34,1.41,0.73,1.41,1.47c0,0.85-0.65,1.35-1.69,1.35
			C177.08,46.8,176.55,46.66,176.22,46.51z"/>
		<path class="st1" d="M181.03,46.72v-4.96h0.66v4.96H181.03z"/>
		<path class="st1" d="M187.68,46.8l-3.08-3.34l-0.16-0.17v3.43h-0.66v-5.04h0.01l3.08,3.34l0.16,0.17v-3.43h0.66L187.68,46.8
			L187.68,46.8z"/>
		<path class="st1" d="M193.49,42.67c-0.32-0.17-0.84-0.37-1.47-0.37c-1.13,0-1.94,0.83-1.94,1.95s0.81,1.95,1.94,1.95
			c0.67,0,1.18-0.2,1.51-0.36v0.63c-0.17,0.1-0.72,0.35-1.51,0.35c-1.5,0-2.61-1.09-2.61-2.56s1.11-2.56,2.61-2.56
			c0.75,0,1.31,0.26,1.47,0.36V42.67z"/>
		<path class="st1" d="M195.17,46.72v-4.96h3.04v0.56h-2.38v1.61h2.01v0.56h-2.01v1.67h2.48v0.56H195.17z"/>
		<path class="st1" d="M205.17,45.15c0,0.95-0.73,1.65-1.71,1.65c-0.96,0-1.69-0.69-1.69-1.68c0-1.22,1.16-2.72,2.02-3.36h0.87
			c-0.88,0.65-1.53,1.46-1.86,2.02c0.12-0.11,0.37-0.26,0.74-0.26C204.5,43.53,205.17,44.26,205.17,45.15z M204.55,45.15
			c0-0.63-0.45-1.09-1.09-1.09s-1.09,0.47-1.09,1.07c0,0.66,0.45,1.12,1.09,1.12S204.55,45.78,204.55,45.15z"/>
		<path class="st1" d="M208.46,41.68c1.15,0,1.88,1.1,1.88,2.56s-0.73,2.56-1.88,2.56s-1.88-1.1-1.88-2.56
			S207.31,41.68,208.46,41.68z M208.46,46.19c0.74,0,1.21-0.79,1.21-1.95s-0.47-1.95-1.21-1.95s-1.21,0.79-1.21,1.95
			S207.71,46.19,208.46,46.19z"/>
		<path class="st1" d="M213.95,46.72v-1.19h-2.35l1.71-3.76h0.66l-1.44,3.2h1.42v-1.29h0.58v1.29h0.69v0.56h-0.69v1.19H213.95z"/>
		<path class="st1" d="M220.43,41.68h0.01l2.28,5.04h-0.7l-0.49-1.1h-2.21l-0.48,1.1h-0.7L220.43,41.68z M221.3,45.08
			c-0.34-0.76-0.59-1.35-0.86-2.05c-0.28,0.7-0.53,1.29-0.87,2.05H221.3z"/>
		<path class="st1" d="M224.17,46.72v-4.96h1.42c1.59,0,2.65,0.99,2.65,2.48s-1.05,2.48-2.62,2.48H224.17z M224.83,42.32v3.84h0.78
			c1.17,0,1.95-0.77,1.95-1.92s-0.79-1.92-1.98-1.92H224.83z"/>
	</g>
</g>
</svg>
